<?xml version="1.0" standalone="no"?>
<!DOCTYPE svg PUBLIC "-//W3C//DTD SVG 20010904//EN"
 "http://www.w3.org/TR/2001/REC-SVG-20010904/DTD/svg10.dtd">
<svg version="1.0" xmlns="http://www.w3.org/2000/svg"
 width="512.000000pt" height="512.000000pt" viewBox="0 0 512.000000 512.000000"
 preserveAspectRatio="xMidYMid meet">
<metadata>
Created by potrace 1.14, written by Peter Selinger 2001-2017
</metadata>
<g transform="translate(0.000000,512.000000) scale(0.100000,-0.100000)"
fill="#000000" stroke="none">
<path d="M2550 4360 c-21 -21 -23 -21 -64 -6 -56 21 -89 20 -111 -4 -22 -25
-33 -25 -65 0 -31 25 -76 26 -89 3 -25 -44 -27 -46 -50 -33 -38 20 -82 16
-103 -9 -18 -23 -18 -23 -67 -5 -58 20 -78 15 -92 -26 -6 -16 -12 -30 -14 -30
-1 0 -19 7 -38 15 -44 18 -83 19 -93 3 -4 -7 -6 -54 -5 -105 1 -51 0 -93 -2
-93 -3 0 -17 21 -32 48 -50 86 -135 192 -154 192 -65 0 -1186 -340 -1307 -396
-75 -35 -57 -134 24 -134 14 0 21 -9 25 -27 9 -48 103 -487 162 -758 67 -310
271 -1218 361 -1608 35 -153 64 -285 64 -294 0 -8 -13 -32 -29 -52 -40 -51
-46 -75 -24 -111 26 -45 80 -77 190 -115 232 -79 396 -84 613 -20 138 41 178
43 515 35 134 -3 167 -1 205 13 29 11 82 19 150 21 58 2 164 8 235 14 132 11
276 4 325 -16 14 -5 44 -28 68 -51 51 -49 132 -76 197 -67 24 4 81 25 126 48
46 22 125 56 174 75 169 64 285 143 418 283 202 212 340 489 512 1025 42 132
123 381 181 552 122 368 146 472 147 633 1 177 -32 276 -131 395 l-50 60 33
36 c54 61 67 85 67 134 0 55 -21 90 -67 112 -78 37 -155 -39 -155 -155 l0 -53
-21 20 c-26 24 -118 45 -157 36 -22 -4 -33 0 -52 21 -27 29 -94 63 -123 64
-10 0 -46 13 -80 30 -34 16 -93 36 -131 44 -57 12 -75 21 -110 55 -45 44 -66
49 -126 27 -34 -13 -36 -12 -71 25 -43 46 -69 49 -121 14 -35 -24 -37 -24 -60
-6 -63 49 -117 62 -153 37 -19 -13 -30 -8 -125 45 -114 64 -151 72 -193 39
l-25 -20 -66 31 c-68 32 -93 32 -129 1 -16 -14 -21 -14 -53 1 -42 21 -94 22
-119 3 -16 -12 -24 -12 -45 -1 -52 26 -68 27 -90 5z m-967 -115 c33 -32 110
-158 151 -247 100 -210 133 -348 245 -999 98 -565 137 -779 202 -1104 49 -247
190 -889 208 -953 9 -30 8 -34 -15 -42 -34 -13 -34 -13 -34 14 0 59 -47 286
-150 721 -152 642 -176 749 -275 1220 -177 841 -228 1029 -364 1328 -17 38
-31 71 -31 73 0 11 50 2 63 -11z m-43 -185 c0 -15 -39 -32 -61 -25 -16 5 -18
10 -8 21 13 16 69 19 69 4z m3212 -17 c28 -25 24 -85 -8 -123 -31 -36 -80 -64
-100 -56 -16 6 -20 100 -5 139 21 55 75 75 113 40z m-122 -253 l29 -20 -44
-93 c-24 -50 -85 -193 -135 -316 -327 -802 -681 -1528 -1079 -2211 -69 -118
-139 -241 -155 -272 -17 -32 -34 -58 -37 -58 -4 0 -16 8 -28 18 l-21 17 71
125 c358 630 827 1603 1319 2733 23 53 44 97 47 97 3 0 18 -9 33 -20z m-4030
-110 c107 -6 215 -10 240 -8 l45 3 18 -74 c10 -40 17 -74 15 -75 -2 -2 -118
-1 -259 2 l-255 4 -21 85 -21 85 22 -6 c11 -3 109 -10 216 -16z m332 -208 c3
-4 9 -28 13 -54 l7 -48 -172 0 -172 0 -28 -30 c-23 -25 -36 -30 -74 -30 -45 0
-45 0 -56 43 -6 23 -15 58 -21 77 -5 19 -9 40 -9 45 0 11 500 8 512 -3z m-373
-215 c2 -5 12 -18 22 -28 17 -17 37 -19 213 -19 107 0 197 -3 200 -8 2 -4 7
-23 11 -43 l7 -37 -169 -4 c-141 -3 -174 -6 -197 -21 -15 -10 -49 -21 -76 -24
l-49 -6 -10 39 c-23 90 -41 162 -41 167 0 9 85 -6 89 -16z m64 -244 c22 -50
70 -62 282 -71 l149 -7 8 -39 c5 -21 6 -41 3 -44 -3 -3 -69 3 -146 12 -78 10
-190 20 -250 23 l-107 6 -16 63 c-23 90 -23 90 25 86 31 -3 43 -10 52 -29z
m222 -200 c132 -13 240 -25 241 -26 1 -1 4 -17 8 -36 l6 -34 -57 7 c-32 3
-107 9 -168 12 -122 7 -160 -2 -174 -39 -9 -23 -62 -44 -81 -32 -4 3 -16 40
-25 82 -10 43 -20 84 -23 92 -4 11 -1 13 14 7 10 -5 127 -19 259 -33z m-142
-208 c20 -22 38 -27 132 -39 61 -8 154 -17 208 -21 70 -5 97 -10 97 -20 0 -7
3 -20 6 -28 4 -13 -20 -14 -174 -13 -176 1 -181 0 -205 -22 -19 -18 -34 -23
-63 -20 -42 3 -38 -4 -68 126 l-14 62 28 0 c18 0 38 -10 53 -25z m46 -231 c36
-30 144 -51 319 -61 69 -4 115 -11 117 -17 2 -6 6 -26 9 -44 6 -32 5 -33 -22
-28 -28 6 -203 20 -373 31 l-95 7 -12 57 c-7 31 -12 63 -12 69 0 21 37 13 69
-14z m27 -160 c16 -4 19 -12 16 -35 -7 -44 6 -79 33 -89 13 -5 111 -19 219
-31 177 -21 195 -25 200 -43 3 -11 4 -21 3 -21 -1 -1 -42 2 -92 6 -49 4 -158
8 -241 8 l-152 1 -16 73 c-31 139 -30 137 -10 137 11 0 28 -3 40 -6z m189
-249 c88 -8 190 -15 226 -15 l66 0 10 -47 c6 -27 10 -50 8 -52 -2 -2 -71 6
-153 18 -164 24 -210 21 -227 -17 -8 -17 -18 -22 -51 -22 l-41 0 -12 58 c-7
31 -15 65 -17 75 -6 21 -14 21 191 2z m-81 -211 c4 -13 15 -28 26 -34 23 -12
212 -32 320 -34 79 -1 90 -6 90 -44 0 -20 -4 -23 -27 -18 -57 11 -291 26 -309
20 -11 -4 -26 -13 -36 -21 -9 -9 -32 -13 -55 -11 -38 3 -38 3 -55 68 -25 98
-24 107 11 102 21 -3 31 -11 35 -28z m66 -214 c8 -10 24 -22 35 -28 25 -12
229 -42 310 -45 l60 -2 12 -55 c6 -30 11 -55 10 -56 -1 -2 -108 12 -238 29
l-236 31 -17 70 c-9 39 -16 75 -16 79 0 14 64 -4 80 -23z m58 -175 c96 -28
262 -55 333 -55 44 0 47 -2 53 -32 3 -17 5 -33 3 -35 -2 -1 -52 6 -112 17 -60
11 -127 20 -149 20 -42 0 -106 -31 -106 -50 0 -7 -17 -10 -42 -8 l-42 3 -18
75 c-19 85 -20 90 -12 90 3 0 44 -11 92 -25z m0 -175 c6 0 12 -6 12 -13 0 -21
43 -56 76 -63 16 -3 98 -13 183 -22 l153 -17 19 -50 c10 -27 19 -53 19 -56 0
-5 -101 12 -406 66 l-92 16 -6 47 c-4 26 -9 60 -12 76 -6 26 -4 28 17 23 13
-4 30 -7 37 -7z"/>
</g>
</svg>
